<svg id="Calque_1" data-name="Calque 1" xmlns="http://www.w3.org/2000/svg" viewBox="0 0 736.87 736.87"><defs><style>.cls-1{fill:#262e31;}.cls-2{fill:#1c2427;}.cls-3{fill:#eef6f9;}</style></defs><circle class="cls-1" cx="368.43" cy="368.43" r="363.43"/><path class="cls-2" d="M699.48,802A367.31,367.31,0,1,1,821.36,883,366.22,366.22,0,0,1,699.48,802Zm514-514a358.44,358.44,0,1,0,105,253.45A356.12,356.12,0,0,0,1213.45,288.06Z" transform="translate(-591.57 -173.08)"/><path class="cls-3" d="M1268.18,393.78l-210.4,118.34a81.62,81.62,0,0,0-68.54-68.55l118.56-210.3a368.21,368.21,0,0,1,160.38,160.51Z" transform="translate(-591.57 -173.08)"/><path class="cls-3" d="M651.3,690.76,861.71,572.42A81.63,81.63,0,0,0,930.24,641L811.68,851.26A368.12,368.12,0,0,1,651.3,690.76Z" transform="translate(-591.57 -173.08)"/></svg>